<?xml version="1.0" standalone="no"?>
<!DOCTYPE svg PUBLIC "-//W3C//DTD SVG 20010904//EN"
 "http://www.w3.org/TR/2001/REC-SVG-20010904/DTD/svg10.dtd">
<svg version="1.0" xmlns="http://www.w3.org/2000/svg"
 width="512.000000pt" height="512.000000pt" viewBox="0 0 512.000000 512.000000"
 preserveAspectRatio="xMidYMid meet">

<g transform="translate(0.000000,512.000000) scale(0.100000,-0.100000)"
fill="#000000" stroke="none">
<path d="M2315 5109 c-800 -83 -1501 -518 -1927 -1196 -487 -774 -516 -1776
-76 -2578 315 -572 836 -1005 1458 -1209 247 -81 452 -115 725 -121 105 -2
177 -2 160 1 -341 50 -526 105 -769 226 -233 117 -409 243 -591 423 -175 173
-310 358 -419 575 -155 306 -225 572 -246 930 -22 380 -4 596 75 875 243 864
982 1503 1870 1620 141 18 421 21 550 6 501 -62 946 -272 1304 -616 379 -365
622 -861 680 -1390 l10 -90 -5 125 c-26 695 -366 1375 -915 1835 -364 305
-802 500 -1284 571 -123 18 -478 26 -600 13z"/>
<path d="M2860 3919 c-806 -52 -1486 -660 -1634 -1459 -144 -772 240 -1557
934 -1914 861 -443 1898 -138 2384 702 93 159 176 397 211 597 23 130 30 369
16 493 -16 139 -17 140 -54 90 -143 -198 -397 -312 -653 -294 -374 26 -671
264 -766 614 -29 108 -30 305 0 413 62 227 219 421 426 525 l88 44 -78 36
c-108 49 -264 100 -379 124 -86 18 -307 42 -360 38 -11 0 -72 -4 -135 -9z"/>
</g>
</svg>
